<?xml version="1.0" encoding="utf-8"?>
<!-- Generator: Adobe Illustrator 24.0.1, SVG Export Plug-In . SVG Version: 6.00 Build 0)  -->
<svg version="1.1" id="Layer_1" xmlns="http://www.w3.org/2000/svg" xmlns:xlink="http://www.w3.org/1999/xlink" x="0px" y="0px"
	 viewBox="0 0 800 800" style="enable-background:new 0 0 800 800;" xml:space="preserve">
<style type="text/css">
	.st0{fill:#DF7FB2;}
</style>
<g>
	<path class="st0" d="M226.91,303.62c-4.46-7.48-9.09-15.17-23.23-29.43c-10-10.08-18.27-18.76-25.38-26.37
		c-75.76,25-76.67,38.31-76.5,39.76c0.21,1.98,4.38,4.88,8.43,7.4c19.8,12.4,34.14,14.92,47.98,17.36
		c10.95,1.94,21.28,3.72,32.98,10c17.07,9.13,24.26,21.2,30.58,31.86c6.9,11.65,12.89,21.7,30.54,29.47
		c15.25,6.74,29.47,7.07,37.94,7.27c20.83,0.5,38.77-4.5,52.82-10.66c-49.8-8.39-81.83-38.11-93.94-49.35
		C235.88,318.63,231.5,311.35,226.91,303.62z"/>
	<path class="st0" d="M459.18,208.86c-1.98-14.75-6.74-26.82-10.91-35.09c-5.83,5.21-11.74,8.06-19.09,11.61
		c-5.54,2.65-12.44,5.99-21.28,11.28c-21.08,12.56-40.71,28.81-58.48,48.31c40.05,22.07,76.5,31.86,78.07,32.28l0.04,0.04
		c5.46,1.41,10.33,2.52,14.63,3.51c0.41,0.08,0.87,0.21,1.28,0.29c7.23-11.53,15.46-29.47,16.61-52.61
		C460.38,221.54,460.01,214.97,459.18,208.86z"/>
	<path class="st0" d="M509.27,190.92c-9.34,11.86-12.73,21.53-16.66,32.69c-2.81,8.02-5.99,17.07-11.7,27.9
		c-6.2,11.74-14.05,22.94-23.43,33.31c6.94,2.4,11.94,5.7,15,11.99c3.64,7.36,3.22,16.78-0.91,27.15
		c9.59-5.5,18.89-11.53,27.73-18.1c13.18-9.75,19.26-16.04,24.59-21.61c5.62-5.83,10.5-10.91,21.08-17.52
		c19.09-12.03,37.9-17.19,51.62-20.95c7.94-2.19,18.8-5.21,19.05-7.69c0.17-1.69-3.06-4.84-5.25-6.94
		c-37.69-36.66-63.15-61.46-76.54-60.92c-0.62,0.04-1.24,0.12-1.82,0.25C524.19,172.4,519.64,177.82,509.27,190.92z"/>
	<path class="st0" d="M401.53,186c9.34-5.58,16.53-9.01,22.28-11.78c9.63-4.63,14.92-7.19,21.37-15.08
		c20.95-25.67,16.57-62.74,14.92-76.71c-2.19-18.27-3.35-26.45-8.27-29.3c-4.79-2.77-11.7-0.5-22.52,3.43
		c-3.84,1.41-8.02,2.89-12.44,4.17c10.54,5.58,17.81,13.97,20.04,23.85c0.41,1.82,0.62,3.64,0.7,5.33l0.79-0.12
		c2.31,12.69,1.78,24.84-1.57,36.12c-6.53,21.78-21.57,33.97-39.01,48.02c-2.89,2.36-5.91,4.75-8.93,7.32
		c-19.26,15.99-37.61,34.34-54.64,54.64c1.32,0.91,2.77,1.82,4.26,2.73C357.51,217.29,378.71,199.64,401.53,186z"/>
	<path class="st0" d="M375.45,44.74c1.36,2.44,4.38,4.17,9.55,5.5c14.88,3.8,28.27-1.07,40.05-5.33c11.82-4.3,22.98-8.31,32.98-2.52
		c10.5,6.12,11.94,18.35,14.34,38.6c1.78,14.84,6.32,53.52-15.29,82.91c2.07,3.68,4.17,7.89,6.12,12.61
		c2.15-6.86,5.33-12.89,9.55-18.06c4.88-6.03,9.96-9.46,14.42-12.52c4.63-3.1,8.64-5.83,12.11-11.03
		c5.87-8.93,7.44-20.95,4.71-35.79l12.19-2.23c3.35,18.1,1.12,33.19-6.57,44.84c-4.84,7.27-10.25,10.95-15.46,14.51
		c-4.13,2.81-8.06,5.46-11.78,10.04c-7.81,9.63-11.16,23.64-9.96,41.62l-0.79,0.04c0.83,6.61,1.16,13.72,0.79,21.2
		c-0.25,5.25-0.83,10.25-1.65,15c4.79-9.3,7.52-17.07,10.17-24.59c4.09-11.74,8.02-22.81,18.64-36.29
		c9.46-11.94,15.99-20.21,26.41-23.85l-1.36-1.24c13.35-14.59,29.38-38.52,30.21-69.52c0.25-10.87,0.62-25.71-8.64-37.82
		c-5.58-7.27-10.66-8.93-31.37-14.88c-5.95-1.69-12.98-3.72-21.41-6.28c-16.61-5.12-28.23-9.3-37.61-12.61
		c-18.14-6.49-24.96-8.93-38.48-7.69c-7.56,0.7-27.53,2.6-37.24,16.49c-0.25,0.29-1.24,1.82-2.36,3.97
		c0.25,4.92-0.62,9.92-2.56,14.22C375.2,44.28,375.32,44.53,375.45,44.74z"/>
	<path class="st0" d="M352.1,78.67c-12.19,10.25-17.48,19.05-15.66,26.29c2.85,11.12,21.74,14.47,21.9,14.51
		c3.26,0.54,6.53,0.62,9.75,0.37c7.89-0.66,15.21-3.43,19.51-6.74c2.31-1.74,3.72-3.64,3.84-5.12c0.33-3.18-4.17-8.43-9.34-9.63
		c-5.99-1.36-14.42,2.89-17.48,12.19l-11.78-3.88c4.75-14.47,18.8-23.43,32.03-20.38c11.03,2.52,19.88,13.27,18.93,22.9
		c-0.21,2.31-0.99,4.59-2.27,6.7c10.08-2.81,16.7-6.82,20.46-13.23c0.79-1.41,3.02-5.62,3.22-10.7c0.08-1.49,0-3.06-0.37-4.63
		c-2.44-10.75-15.66-19.34-32.9-21.37l0.25-2.07c-0.08,0-0.21,0-0.33-0.04l-0.04,2.15C382.93,65.78,365.94,67.1,352.1,78.67z"/>
	<path class="st0" d="M337.22,124.42c-5.7-3.6-10.87-8.84-12.77-16.45c-4.67-18.39,13.68-33.77,19.67-38.81
		c8.1-6.74,16.9-10.66,25.09-12.85c-0.79-0.66-1.53-1.36-2.19-2.19h-0.04c-5.13,3.26-10.62,3.31-16.86,3.31
		c-1.61,0-3.39,0-5.33,0.08c-9.13,0.29-30.54,0.95-41.54,9.92c-6.16,5-7.19,11.32-8.43,18.64c-1.28,7.65-2.73,16.28-10.87,22.07
		c9.42,7.27,19.84,12.27,30.96,14.92C321.97,124.75,328.29,125,337.22,124.42z"/>
	<path class="st0" d="M284.81,173.69c-3.55-14.55-14.84-21.74-18.18-23.6l5.99-10.87c0.25,0.17,0.58,0.33,0.91,0.54
		c-4.46-3.43-8.68-7.23-12.61-11.32l8.89-8.6l4.67-3.26c-1.57-1.24-3.1-2.56-4.59-3.88c-6.08,0.12-11.94-1.61-17.11-3.14
		c-4.34-1.28-9.67-2.85-11.24-1.69c-0.99,0.79-8.97,9.55,22.36,77.2c2.02,0.87,4.09,1.82,6.24,2.81c5.17,2.44,9.59,4.75,13.47,7.07
		C285.43,189.8,286.92,182.28,284.81,173.69z"/>
	<path class="st0" d="M247.53,178.97c-26.45-59.84-21.82-74.6-13.51-80.96c6.57-5,14.55-2.65,22.28-0.37
		c5.95,1.78,11.61,3.43,16.53,2.19c1.2-0.29,2.31-0.74,3.39-1.45c4.22-2.69,5.12-6.98,6.36-14.34c1.36-8.14,3.06-18.27,12.81-26.24
		c14.26-11.57,38.6-12.36,48.98-12.69c2.07-0.08,3.97-0.08,5.7-0.08c6.61,0,8.93-0.17,10.95-1.94c0.41-0.37,0.78-0.79,1.16-1.28
		c-0.25-4.3,0.7-8.97,2.81-13.97c-0.29-1.28-0.66-2.44-1.2-3.43c-5.33-10.54-32.98-8.31-46.29-7.23
		c-12.98,1.03-37.11,2.98-62.16,19.51c-9.34,6.16-12.52,10.21-17.77,16.95c-5.25,6.7-12.44,15.91-28.81,31.2
		c-7.48,7.03-13.6,12.23-18.52,16.41c-10.58,9.01-14.96,12.73-17.23,20.42c-3.6,12.19,0.12,26.86,11.08,43.68
		c5.99,0.79,12.94,1.98,21,3.64C223.19,172.73,235.8,175.34,247.53,178.97z"/>
	<path class="st0" d="M432.11,353.96c6.61-4.96,13.18-11.53,18.47-18.47c10.17-13.39,14.3-26.08,10.79-33.23
		c-2.31-4.71-8.06-6.2-21.99-9.38c-4.42-0.99-9.42-2.15-15.04-3.6c-1.69-0.45-41.54-11.2-84.23-35.25
		c-20.87-11.78-30.38-21.08-38.73-29.3c-8.89-8.72-16.53-16.24-36.53-25.66c-4.63-2.19-9.01-4.01-13.35-5.58
		c-13.6-5.04-27.15-7.85-48.89-12.36c-12.27-2.52-21.41-3.84-28.23-4.3c-12.94-0.83-17.81,1.41-20.75,4.17
		c-2.4,2.23-5.17,3.68-7.77,4.79c12.15,5.79,24.8,10.37,37.61,13.68c10.33,2.69,18.1,3.84,25.62,5c9.59,1.45,18.68,2.85,30.17,7.23
		c15.75,5.99,30.5,15.46,43.81,28.19l-8.56,8.97c-12.11-11.57-25.46-20.17-39.63-25.58c-10.29-3.88-18.35-5.12-27.65-6.53
		c-7.48-1.16-15.95-2.44-26.86-5.29c-8.72-2.23-17.32-5.04-25.75-8.35c3.97,4.26,7.94,8.72,12.23,13.56
		c10.79,12.11,24.22,27.24,45.63,48.81c15.21,15.29,20.46,24.05,25.05,31.78c4.34,7.23,8.06,13.51,20.04,24.59
		c11.53,10.7,42.2,39.18,89.39,46.54c4.17,0.66,9.88,1.53,16.74,2.11c8.47,0.66,16.57,0.62,24.09-0.12
		c8.76-0.87,17.03-2.77,24.59-5.62C419.55,362.02,426.2,358.43,432.11,353.96z"/>
	<path class="st0" d="M380.94,171.7c3.1-2.56,6.12-5,9.05-7.4c16.49-13.31,29.55-23.85,34.92-41.95c0.54-1.78,0.95-3.55,1.28-5.37
		c-11.65,10.66-30.91,14.01-57.36,16.82c-4.38,0.5-8.97,0.95-13.72,1.45c-10.21,1.03-18.18,1.86-25.5,1.86
		c-5.99,0-11.57-0.58-17.56-1.98c-13.6-3.26-26.2-9.46-37.57-18.56l-4.67,3.26c8.56,8.84,23.19,20.79,44.1,27.4
		c28.27,8.93,53.19,3.39,65.51-0.7l3.89,11.78c-8.31,2.77-21.78,6.12-38.1,6.12c-10.66,0-22.52-1.45-35.01-5.37
		c-10.37-3.31-20.29-8.06-29.43-14.09c5.95,5.08,13.1,13.47,16.08,25.79c3.22,13.14,0.21,24.38-2.65,31.08
		c6.41,4.75,11.08,9.3,15.87,14.01c4.17,4.09,8.39,8.27,14.13,12.77C341.85,207.49,360.9,188.4,380.94,171.7z"/>
	<path class="st0" d="M384.23,546.1c-1.08-0.54-11.45-6.28-12.4-6.86l-3.85-18.77l-10.24-31.65l-2.07,11.9l-29.92-39.88l-1.61,18.14
		l-28.02-39.63l-0.21,10.04l-31.45-23.68l-0.37,13.35l-38.44-23.02l4.79,14.96l-31.08-12.19l6.53,7.85h-15.17h-37.65l10.79,5.95
		l22.48,12.44h-10.7l34.67,16.99h-15.66l48.85,22.61h-17.19l57.32,26.82l-15.75,2.89l29.01,10.54l-7.36,4.92l46.74,6.78l-6.41,5.25
		l25.71,1.53c3.88,2.77,17.36,10.83,19.55,11.99c0.58,0.33,20.91,9.92,31.04,13.27c2.52,0.83,9.09,2.81,9.09,2.81l1.57-5.62
		l1.78-6.32C418.61,559.49,393.24,550.69,384.23,546.1z"/>
	<g>
		<path class="st0" d="M348.25,798c-4.64-21.12-5.13-41.96-1.45-61.95c6.01-32.66,21.18-51.09,37.24-70.61
			c10.34-12.56,21.03-25.55,31.4-44.14c5.93-10.64,35.2-67.25,29.04-137.34c-3.26-37.06-15.69-72.56-36.96-105.51l17.36-11.21
			c23.11,35.8,36.63,74.46,40.18,114.91c6.52,74.19-22.52,132.97-31.57,149.21c-11.27,20.22-23.07,34.56-33.49,47.21
			c-15.55,18.89-27.83,33.81-32.87,61.21c-3.18,17.27-2.74,35.36,1.3,53.77L348.25,798z"/>
	</g>
	<path class="st0" d="M691.55,319.41l-36.07,10.81l-14.53,4.35l4-9.4l-26.27,20.6l0.3-15.71l-30.21,33.08l-4.19-12.68l-23.33,31.71
		l-3.08-9.56l-15.46,46.01l-6.75-16.92l-17.21,46.79l-5.4-10.81l-0.72,33.26l1.7,19.09c-0.74,0.83-9.03,9.31-9.91,10.13
		c-7.31,6.98-29.09,22.7-29.09,22.7l3.52,5.55l3.12,4.93c0,0,5.73-3.79,7.9-5.3c8.74-6.11,25.46-21.14,25.92-21.62
		c1.77-1.74,12.36-13.32,15.29-17.09l24.19-8.84l-7.64-3.19l42.83-19.91l-8.46-2.6l24.77-18.42l-15.91,1.75l47.21-42.15l-16.47,4.94
		l40.31-35.68l-15,4.5l28.34-26.22l-10.25,3.07l17.97-18.37L691.55,319.41z"/>
</g>
</svg>
